<svg id="visual" viewBox="0 0 900 600" width="900" height="600" xmlns="http://www.w3.org/2000/svg" xmlns:xlink="http://www.w3.org/1999/xlink" version="1.1"><rect x="0" y="0" width="900" height="600" fill="#272e38"></rect><path d="M0 361L129 361L129 382L257 382L257 357L386 357L386 268L514 268L514 353L643 353L643 339L771 339L771 255L900 255L900 304L900 601L900 601L771 601L771 601L643 601L643 601L514 601L514 601L386 601L386 601L257 601L257 601L129 601L129 601L0 601Z" fill="#f15f22"></path><path d="M0 373L129 373L129 421L257 421L257 446L386 446L386 418L514 418L514 367L643 367L643 424L771 424L771 419L900 419L900 345L900 601L900 601L771 601L771 601L643 601L643 601L514 601L514 601L386 601L386 601L257 601L257 601L129 601L129 601L0 601Z" fill="#8e3a19"></path><path d="M0 449L129 449L129 508L257 508L257 478L386 478L386 450L514 450L514 540L643 540L643 535L771 535L771 475L900 475L900 464L900 601L900 601L771 601L771 601L643 601L643 601L514 601L514 601L386 601L386 601L257 601L257 601L129 601L129 601L0 601Z" fill="#36180b"></path></svg>