<svg id="visual" viewBox="0 0 900 600" width="900" height="600" xmlns="http://www.w3.org/2000/svg" xmlns:xlink="http://www.w3.org/1999/xlink" version="1.1"><g stroke-width="1" stroke-linejoin="bevel"><path d="M481 308L527.3 280L491.3 258Z" fill="#562d63" stroke="#562d63"></path><path d="M491.3 258L442 263L481 308Z" fill="#9a2b68" stroke="#9a2b68"></path><path d="M481 308L549.6 328L527.3 280Z" fill="#1c2445" stroke="#1c2445"></path><path d="M592.6 315L550.6 239L527.3 280Z" fill="#0a1b31" stroke="#0a1b31"></path><path d="M527.3 280L550.6 239L491.3 258Z" fill="#00101c" stroke="#00101c"></path><path d="M406.7 200L398.7 215L442 263Z" fill="#1c2445" stroke="#1c2445"></path><path d="M481 308L551.3 347L549.6 328Z" fill="#9a2b68" stroke="#9a2b68"></path><path d="M549.6 328L592.6 315L527.3 280Z" fill="#562d63" stroke="#562d63"></path><path d="M550.6 239L545.3 213L491.3 258Z" fill="#e6463e" stroke="#e6463e"></path><path d="M398.7 215L410.7 266L442 263Z" fill="#562d63" stroke="#562d63"></path><path d="M442 263L410.7 266L481 308Z" fill="#782d69" stroke="#782d69"></path><path d="M551.3 347L592.6 315L549.6 328Z" fill="#0a1b31" stroke="#0a1b31"></path><path d="M550.6 239L629.9 260L545.3 213Z" fill="#d33352" stroke="#d33352"></path><path d="M381.7 381L463 390L481 308Z" fill="#782d69" stroke="#782d69"></path><path d="M481 308L463 390L551.3 347Z" fill="#0a1b31" stroke="#0a1b31"></path><path d="M406.7 200L442 263L426 176Z" fill="#1c2445" stroke="#1c2445"></path><path d="M426 176L442 263L491.3 258Z" fill="#372a57" stroke="#372a57"></path><path d="M504.3 143L426 176L491.3 258Z" fill="#372a57" stroke="#372a57"></path><path d="M592.6 315L629.9 260L550.6 239Z" fill="#0a1b31" stroke="#0a1b31"></path><path d="M463 390L482 419L551.3 347Z" fill="#1c2445" stroke="#1c2445"></path><path d="M551.3 347L612.9 384L592.6 315Z" fill="#b92b60" stroke="#b92b60"></path><path d="M586.6 149L504.3 143L545.3 213Z" fill="#782d69" stroke="#782d69"></path><path d="M545.3 213L504.3 143L491.3 258Z" fill="#f15f22" stroke="#f15f22"></path><path d="M586.6 441L612.9 384L551.3 347Z" fill="#e6463e" stroke="#e6463e"></path><path d="M592.6 315L661.9 277L629.9 260Z" fill="#b92b60" stroke="#b92b60"></path><path d="M318.4 389L381.7 381L288.4 317Z" fill="#9a2b68" stroke="#9a2b68"></path><path d="M410.7 266L381.7 381L481 308Z" fill="#f15f22" stroke="#f15f22"></path><path d="M463 390L414.7 450L482 419Z" fill="#562d63" stroke="#562d63"></path><path d="M406.7 200L359.4 216L398.7 215Z" fill="#9a2b68" stroke="#9a2b68"></path><path d="M398.7 215L359.4 216L410.7 266Z" fill="#e6463e" stroke="#e6463e"></path><path d="M362.7 158L359.4 216L406.7 200Z" fill="#372a57" stroke="#372a57"></path><path d="M656.9 183L586.6 149L545.3 213Z" fill="#782d69" stroke="#782d69"></path><path d="M673.9 367L661.9 277L592.6 315Z" fill="#782d69" stroke="#782d69"></path><path d="M629.9 260L656.9 183L545.3 213Z" fill="#f15f22" stroke="#f15f22"></path><path d="M425 482L514.3 459L482 419Z" fill="#f15f22" stroke="#f15f22"></path><path d="M482 419L586.6 441L551.3 347Z" fill="#b92b60" stroke="#b92b60"></path><path d="M509.3 53L453 116L504.3 143Z" fill="#1c2445" stroke="#1c2445"></path><path d="M504.3 143L453 116L426 176Z" fill="#d33352" stroke="#d33352"></path><path d="M426 176L362.7 158L406.7 200Z" fill="#562d63" stroke="#562d63"></path><path d="M514.3 459L586.6 441L482 419Z" fill="#562d63" stroke="#562d63"></path><path d="M381.7 381L414.7 450L463 390Z" fill="#0a1b31" stroke="#0a1b31"></path><path d="M453 116L362.7 158L426 176Z" fill="#9a2b68" stroke="#9a2b68"></path><path d="M661.9 277L656.9 183L629.9 260Z" fill="#b92b60" stroke="#b92b60"></path><path d="M644.9 479L673.9 367L612.9 384Z" fill="#d33352" stroke="#d33352"></path><path d="M612.9 384L673.9 367L592.6 315Z" fill="#e6463e" stroke="#e6463e"></path><path d="M661.9 277L710.1 201L656.9 183Z" fill="#1c2445" stroke="#1c2445"></path><path d="M598.6 119L546.6 98L586.6 149Z" fill="#b92b60" stroke="#b92b60"></path><path d="M586.6 149L546.6 98L504.3 143Z" fill="#562d63" stroke="#562d63"></path><path d="M668.9 139L598.6 119L586.6 149Z" fill="#0a1b31" stroke="#0a1b31"></path><path d="M673.9 367L697.1 319L661.9 277Z" fill="#00101c" stroke="#00101c"></path><path d="M540.6 514L544.3 482L514.3 459Z" fill="#e6463e" stroke="#e6463e"></path><path d="M514.3 459L544.3 482L586.6 441Z" fill="#f15f22" stroke="#f15f22"></path><path d="M586.6 441L644.9 479L612.9 384Z" fill="#00101c" stroke="#00101c"></path><path d="M453 116L355.4 144L362.7 158Z" fill="#372a57" stroke="#372a57"></path><path d="M362.7 158L302.4 168L359.4 216Z" fill="#d33352" stroke="#d33352"></path><path d="M288.4 317L381.7 381L410.7 266Z" fill="#372a57" stroke="#372a57"></path><path d="M381.7 381L386.7 465L414.7 450Z" fill="#e6463e" stroke="#e6463e"></path><path d="M288.4 317L410.7 266L359.4 216Z" fill="#782d69" stroke="#782d69"></path><path d="M386.7 465L425 482L414.7 450Z" fill="#e6463e" stroke="#e6463e"></path><path d="M414.7 450L425 482L482 419Z" fill="#e6463e" stroke="#e6463e"></path><path d="M318.4 389L386.7 465L381.7 381Z" fill="#0a1b31" stroke="#0a1b31"></path><path d="M288.1 196L288.4 317L359.4 216Z" fill="#1c2445" stroke="#1c2445"></path><path d="M288.4 317L302.4 381L318.4 389Z" fill="#d33352" stroke="#d33352"></path><path d="M318.4 389L309.4 468L386.7 465Z" fill="#1c2445" stroke="#1c2445"></path><path d="M656.9 183L668.9 139L586.6 149Z" fill="#372a57" stroke="#372a57"></path><path d="M530.3 0L509.3 53L565.6 0Z" fill="#372a57" stroke="#372a57"></path><path d="M710.1 201L668.9 139L656.9 183Z" fill="#372a57" stroke="#372a57"></path><path d="M743.1 229L710.1 201L661.9 277Z" fill="#1c2445" stroke="#1c2445"></path><path d="M288.4 317L279.1 345L302.4 381Z" fill="#b92b60" stroke="#b92b60"></path><path d="M355.4 144L302.4 168L362.7 158Z" fill="#782d69" stroke="#782d69"></path><path d="M288.4 317L248.1 333L279.1 345Z" fill="#0a1b31" stroke="#0a1b31"></path><path d="M302.4 168L288.1 196L359.4 216Z" fill="#d33352" stroke="#d33352"></path><path d="M527.3 535L540.6 514L514.3 459Z" fill="#562d63" stroke="#562d63"></path><path d="M617.6 520L644.9 479L586.6 441Z" fill="#00101c" stroke="#00101c"></path><path d="M651.9 48L546.6 98L598.6 119Z" fill="#b92b60" stroke="#b92b60"></path><path d="M546.6 98L509.3 53L504.3 143Z" fill="#9a2b68" stroke="#9a2b68"></path><path d="M453 116L382.7 69L355.4 144Z" fill="#d33352" stroke="#d33352"></path><path d="M355.4 144L269.1 138L302.4 168Z" fill="#1c2445" stroke="#1c2445"></path><path d="M673.9 367L736.1 324L697.1 319Z" fill="#782d69" stroke="#782d69"></path><path d="M697.1 319L743.1 229L661.9 277Z" fill="#00101c" stroke="#00101c"></path><path d="M725.1 394L736.1 324L673.9 367Z" fill="#b92b60" stroke="#b92b60"></path><path d="M617.6 520L586.6 441L544.3 482Z" fill="#b92b60" stroke="#b92b60"></path><path d="M469 26L382.7 69L453 116Z" fill="#b92b60" stroke="#b92b60"></path><path d="M736.1 324L743.1 229L697.1 319Z" fill="#9a2b68" stroke="#9a2b68"></path><path d="M731.4 133L688.1 98L668.9 139Z" fill="#d33352" stroke="#d33352"></path><path d="M731.4 439L725.1 394L673.9 367Z" fill="#1c2445" stroke="#1c2445"></path><path d="M425 482L527.3 535L514.3 459Z" fill="#e6463e" stroke="#e6463e"></path><path d="M540.6 514L617.6 520L544.3 482Z" fill="#e6463e" stroke="#e6463e"></path><path d="M419 546L527.3 535L425 482Z" fill="#f15f22" stroke="#f15f22"></path><path d="M224.1 273L248.1 333L288.4 317Z" fill="#9a2b68" stroke="#9a2b68"></path><path d="M279.1 345L253.1 387L302.4 381Z" fill="#9a2b68" stroke="#9a2b68"></path><path d="M302.4 381L309.4 468L318.4 389Z" fill="#00101c" stroke="#00101c"></path><path d="M509.3 53L469 26L453 116Z" fill="#782d69" stroke="#782d69"></path><path d="M530.3 0L469 26L509.3 53Z" fill="#b92b60" stroke="#b92b60"></path><path d="M527.3 535L617.6 520L540.6 514Z" fill="#782d69" stroke="#782d69"></path><path d="M644.9 479L731.4 439L673.9 367Z" fill="#782d69" stroke="#782d69"></path><path d="M253.1 387L309.4 468L302.4 381Z" fill="#d33352" stroke="#d33352"></path><path d="M386.7 465L419 546L425 482Z" fill="#9a2b68" stroke="#9a2b68"></path><path d="M248.1 333L253.1 387L279.1 345Z" fill="#562d63" stroke="#562d63"></path><path d="M731.4 133L668.9 139L710.1 201Z" fill="#0a1b31" stroke="#0a1b31"></path><path d="M668.9 139L688.1 98L598.6 119Z" fill="#d33352" stroke="#d33352"></path><path d="M322.4 515L419 546L386.7 465Z" fill="#e6463e" stroke="#e6463e"></path><path d="M321.4 32L269.1 138L355.4 144Z" fill="#f15f22" stroke="#f15f22"></path><path d="M302.4 168L269.1 138L288.1 196Z" fill="#372a57" stroke="#372a57"></path><path d="M288.1 196L224.1 273L288.4 317Z" fill="#d33352" stroke="#d33352"></path><path d="M212.9 208L224.1 273L288.1 196Z" fill="#f15f22" stroke="#f15f22"></path><path d="M248.1 333L194.9 352L253.1 387Z" fill="#f15f22" stroke="#f15f22"></path><path d="M779.4 197L731.4 133L710.1 201Z" fill="#00101c" stroke="#00101c"></path><path d="M707.1 507L731.4 439L644.9 479Z" fill="#1c2445" stroke="#1c2445"></path><path d="M820.7 281L789.4 264L736.1 324Z" fill="#9a2b68" stroke="#9a2b68"></path><path d="M736.1 324L789.4 264L743.1 229Z" fill="#e6463e" stroke="#e6463e"></path><path d="M700.1 42L651.9 48L688.1 98Z" fill="#372a57" stroke="#372a57"></path><path d="M688.1 98L651.9 48L598.6 119Z" fill="#f15f22" stroke="#f15f22"></path><path d="M611.6 600L644.9 530L617.6 520Z" fill="#f15f22" stroke="#f15f22"></path><path d="M617.6 520L644.9 530L644.9 479Z" fill="#1c2445" stroke="#1c2445"></path><path d="M611.6 600L617.6 520L527.3 535Z" fill="#b92b60" stroke="#b92b60"></path><path d="M565.6 0L509.3 53L546.6 98Z" fill="#e6463e" stroke="#e6463e"></path><path d="M252.1 469L322.4 515L309.4 468Z" fill="#562d63" stroke="#562d63"></path><path d="M309.4 468L322.4 515L386.7 465Z" fill="#e6463e" stroke="#e6463e"></path><path d="M791.4 396L736.1 324L725.1 394Z" fill="#0a1b31" stroke="#0a1b31"></path><path d="M743.1 229L779.4 197L710.1 201Z" fill="#e6463e" stroke="#e6463e"></path><path d="M469 26L434 0L382.7 69Z" fill="#00101c" stroke="#00101c"></path><path d="M382.7 69L321.4 32L355.4 144Z" fill="#d33352" stroke="#d33352"></path><path d="M530.3 0L434 0L469 26Z" fill="#562d63" stroke="#562d63"></path><path d="M651.9 48L565.6 0L546.6 98Z" fill="#372a57" stroke="#372a57"></path><path d="M803.4 221L779.4 197L743.1 229Z" fill="#372a57" stroke="#372a57"></path><path d="M269.1 138L212.9 208L288.1 196Z" fill="#b92b60" stroke="#b92b60"></path><path d="M434 0L407.7 0L382.7 69Z" fill="#562d63" stroke="#562d63"></path><path d="M644.9 530L707.1 507L644.9 479Z" fill="#562d63" stroke="#562d63"></path><path d="M253.1 387L252.1 469L309.4 468Z" fill="#9a2b68" stroke="#9a2b68"></path><path d="M199.9 411L252.1 469L253.1 387Z" fill="#e6463e" stroke="#e6463e"></path><path d="M194.9 352L248.1 333L224.1 273Z" fill="#f15f22" stroke="#f15f22"></path><path d="M407.7 0L321.4 32L382.7 69Z" fill="#0a1b31" stroke="#0a1b31"></path><path d="M269.1 138L188.9 198L212.9 208Z" fill="#782d69" stroke="#782d69"></path><path d="M789.4 264L803.4 221L743.1 229Z" fill="#d33352" stroke="#d33352"></path><path d="M742.1 0L700.1 42L788.4 26Z" fill="#00101c" stroke="#00101c"></path><path d="M176.9 261L194.9 352L224.1 273Z" fill="#e6463e" stroke="#e6463e"></path><path d="M798.7 417L791.4 396L731.4 439Z" fill="#782d69" stroke="#782d69"></path><path d="M731.4 439L791.4 396L725.1 394Z" fill="#f15f22" stroke="#f15f22"></path><path d="M789.4 264L836.7 233L803.4 221Z" fill="#372a57" stroke="#372a57"></path><path d="M474 600L527.3 535L419 546Z" fill="#0a1b31" stroke="#0a1b31"></path><path d="M474 600L496.3 600L527.3 535Z" fill="#e6463e" stroke="#e6463e"></path><path d="M644.9 530L723.1 547L707.1 507Z" fill="#b92b60" stroke="#b92b60"></path><path d="M382.7 579L474 600L419 546Z" fill="#0a1b31" stroke="#0a1b31"></path><path d="M349.7 600L382.7 579L322.4 515Z" fill="#0a1b31" stroke="#0a1b31"></path><path d="M322.4 515L382.7 579L419 546Z" fill="#d33352" stroke="#d33352"></path><path d="M731.4 133L700.1 42L688.1 98Z" fill="#372a57" stroke="#372a57"></path><path d="M651.9 48L636.9 0L565.6 0Z" fill="#d33352" stroke="#d33352"></path><path d="M841.7 135L731.4 133L779.4 197Z" fill="#d33352" stroke="#d33352"></path><path d="M700.1 42L636.9 0L651.9 48Z" fill="#782d69" stroke="#782d69"></path><path d="M820.7 350L820.7 281L736.1 324Z" fill="#b92b60" stroke="#b92b60"></path><path d="M168.9 84L188.9 198L269.1 138Z" fill="#562d63" stroke="#562d63"></path><path d="M212.9 208L176.9 261L224.1 273Z" fill="#1c2445" stroke="#1c2445"></path><path d="M188.9 198L176.9 261L212.9 208Z" fill="#d33352" stroke="#d33352"></path><path d="M135.6 358L199.9 411L194.9 352Z" fill="#1c2445" stroke="#1c2445"></path><path d="M194.9 352L199.9 411L253.1 387Z" fill="#782d69" stroke="#782d69"></path><path d="M805.4 477L798.7 417L731.4 439Z" fill="#782d69" stroke="#782d69"></path><path d="M791.4 396L820.7 350L736.1 324Z" fill="#372a57" stroke="#372a57"></path><path d="M798.7 417L820.7 350L791.4 396Z" fill="#d33352" stroke="#d33352"></path><path d="M496.3 600L611.6 600L527.3 535Z" fill="#782d69" stroke="#782d69"></path><path d="M185.9 505L291.1 550L252.1 469Z" fill="#1c2445" stroke="#1c2445"></path><path d="M252.1 469L291.1 550L322.4 515Z" fill="#f15f22" stroke="#f15f22"></path><path d="M900 330L836.7 233L820.7 281Z" fill="#9a2b68" stroke="#9a2b68"></path><path d="M820.7 281L836.7 233L789.4 264Z" fill="#d33352" stroke="#d33352"></path><path d="M863.7 161L841.7 135L779.4 197Z" fill="#f15f22" stroke="#f15f22"></path><path d="M671.1 600L723.1 547L644.9 530Z" fill="#782d69" stroke="#782d69"></path><path d="M707.1 507L805.4 477L731.4 439Z" fill="#372a57" stroke="#372a57"></path><path d="M407.7 0L306.4 0L321.4 32Z" fill="#d33352" stroke="#d33352"></path><path d="M321.4 32L236.1 38L269.1 138Z" fill="#1c2445" stroke="#1c2445"></path><path d="M611.6 600L643.9 600L644.9 530Z" fill="#f15f22" stroke="#f15f22"></path><path d="M335.4 600L349.7 600L322.4 515Z" fill="#9a2b68" stroke="#9a2b68"></path><path d="M382.7 579L349.7 600L474 600Z" fill="#372a57" stroke="#372a57"></path><path d="M291.1 550L335.4 600L322.4 515Z" fill="#b92b60" stroke="#b92b60"></path><path d="M306.4 0L284.1 0L321.4 32Z" fill="#0a1b31" stroke="#0a1b31"></path><path d="M643.9 600L671.1 600L644.9 530Z" fill="#0a1b31" stroke="#0a1b31"></path><path d="M900 383L900 330L820.7 350Z" fill="#782d69" stroke="#782d69"></path><path d="M900 209L863.7 161L836.7 233Z" fill="#b92b60" stroke="#b92b60"></path><path d="M741.4 556L805.4 477L707.1 507Z" fill="#00101c" stroke="#00101c"></path><path d="M741.4 556L707.1 507L723.1 547Z" fill="#1c2445" stroke="#1c2445"></path><path d="M284.1 0L236.1 38L321.4 32Z" fill="#0a1b31" stroke="#0a1b31"></path><path d="M754.4 600L741.4 556L723.1 547Z" fill="#782d69" stroke="#782d69"></path><path d="M176.9 261L135.6 358L194.9 352Z" fill="#f15f22" stroke="#f15f22"></path><path d="M164.9 482L185.9 505L252.1 469Z" fill="#562d63" stroke="#562d63"></path><path d="M97.6 333L135.6 358L176.9 261Z" fill="#f15f22" stroke="#f15f22"></path><path d="M97.6 333L176.9 261L92.6 210Z" fill="#00101c" stroke="#00101c"></path><path d="M863.7 161L779.4 197L803.4 221Z" fill="#b92b60" stroke="#b92b60"></path><path d="M700.1 42L742.1 0L636.9 0Z" fill="#9a2b68" stroke="#9a2b68"></path><path d="M788.4 26L700.1 42L731.4 133Z" fill="#0a1b31" stroke="#0a1b31"></path><path d="M164.9 482L252.1 469L199.9 411Z" fill="#1c2445" stroke="#1c2445"></path><path d="M291.1 550L269.1 600L335.4 600Z" fill="#372a57" stroke="#372a57"></path><path d="M836.7 233L863.7 161L803.4 221Z" fill="#d33352" stroke="#d33352"></path><path d="M820.7 50L788.4 26L731.4 133Z" fill="#b92b60" stroke="#b92b60"></path><path d="M900 330L820.7 281L820.7 350Z" fill="#0a1b31" stroke="#0a1b31"></path><path d="M135.6 358L134.6 411L199.9 411Z" fill="#b92b60" stroke="#b92b60"></path><path d="M173.9 71L269.1 138L236.1 38Z" fill="#782d69" stroke="#782d69"></path><path d="M173.9 71L168.9 84L269.1 138Z" fill="#e6463e" stroke="#e6463e"></path><path d="M134.6 411L164.9 482L199.9 411Z" fill="#1c2445" stroke="#1c2445"></path><path d="M820.7 50L731.4 133L841.7 135Z" fill="#9a2b68" stroke="#9a2b68"></path><path d="M165.9 600L269.1 600L185.9 505Z" fill="#f15f22" stroke="#f15f22"></path><path d="M185.9 505L269.1 600L291.1 550Z" fill="#00101c" stroke="#00101c"></path><path d="M204.9 0L173.9 71L236.1 38Z" fill="#d33352" stroke="#d33352"></path><path d="M900 77L820.7 50L841.7 135Z" fill="#0a1b31" stroke="#0a1b31"></path><path d="M900 383L820.7 350L798.7 417Z" fill="#d33352" stroke="#d33352"></path><path d="M135.6 358L88.3 393L134.6 411Z" fill="#9a2b68" stroke="#9a2b68"></path><path d="M134.6 411L107.6 485L164.9 482Z" fill="#00101c" stroke="#00101c"></path><path d="M92.6 210L176.9 261L188.9 198Z" fill="#0a1b31" stroke="#0a1b31"></path><path d="M671.1 600L754.4 600L723.1 547Z" fill="#372a57" stroke="#372a57"></path><path d="M741.4 556L841.7 533L805.4 477Z" fill="#1c2445" stroke="#1c2445"></path><path d="M900 418L900 383L798.7 417Z" fill="#d33352" stroke="#d33352"></path><path d="M900 330L900 213L836.7 233Z" fill="#372a57" stroke="#372a57"></path><path d="M900 0L830.7 0L820.7 50Z" fill="#782d69" stroke="#782d69"></path><path d="M61.3 212L103.6 186L47.3 145Z" fill="#b92b60" stroke="#b92b60"></path><path d="M168.9 84L103.6 186L188.9 198Z" fill="#0a1b31" stroke="#0a1b31"></path><path d="M900 213L900 209L836.7 233Z" fill="#0a1b31" stroke="#0a1b31"></path><path d="M284.1 0L204.9 0L236.1 38Z" fill="#0a1b31" stroke="#0a1b31"></path><path d="M61.3 212L92.6 210L103.6 186Z" fill="#0a1b31" stroke="#0a1b31"></path><path d="M864.7 480L798.7 417L805.4 477Z" fill="#562d63" stroke="#562d63"></path><path d="M103.6 186L92.6 210L188.9 198Z" fill="#00101c" stroke="#00101c"></path><path d="M841.7 533L864.7 480L805.4 477Z" fill="#00101c" stroke="#00101c"></path><path d="M864.7 480L900 418L798.7 417Z" fill="#1c2445" stroke="#1c2445"></path><path d="M820.7 50L810.4 0L788.4 26Z" fill="#782d69" stroke="#782d69"></path><path d="M788.4 26L810.4 0L742.1 0Z" fill="#1c2445" stroke="#1c2445"></path><path d="M830.7 0L810.4 0L820.7 50Z" fill="#372a57" stroke="#372a57"></path><path d="M754.4 600L841.7 533L741.4 556Z" fill="#d33352" stroke="#d33352"></path><path d="M864.7 480L900 493L900 418Z" fill="#1c2445" stroke="#1c2445"></path><path d="M28.3 386L88.3 393L97.6 333Z" fill="#372a57" stroke="#372a57"></path><path d="M97.6 333L88.3 393L135.6 358Z" fill="#0a1b31" stroke="#0a1b31"></path><path d="M61.3 212L73.3 217L92.6 210Z" fill="#00101c" stroke="#00101c"></path><path d="M92.6 210L73.3 217L97.6 333Z" fill="#e6463e" stroke="#e6463e"></path><path d="M103.6 186L168.9 84L91.6 109Z" fill="#782d69" stroke="#782d69"></path><path d="M900 99L841.7 135L863.7 161Z" fill="#f15f22" stroke="#f15f22"></path><path d="M88.3 393L107.6 485L134.6 411Z" fill="#0a1b31" stroke="#0a1b31"></path><path d="M164.9 482L110.6 536L185.9 505Z" fill="#1c2445" stroke="#1c2445"></path><path d="M900 209L900 99L863.7 161Z" fill="#372a57" stroke="#372a57"></path><path d="M91.6 109L168.9 84L89.6 54Z" fill="#f15f22" stroke="#f15f22"></path><path d="M73.3 217L35.3 321L97.6 333Z" fill="#f15f22" stroke="#f15f22"></path><path d="M89.6 54L168.9 84L173.9 71Z" fill="#d33352" stroke="#d33352"></path><path d="M900 545L900 493L841.7 533Z" fill="#0a1b31" stroke="#0a1b31"></path><path d="M841.7 533L900 493L864.7 480Z" fill="#372a57" stroke="#372a57"></path><path d="M900 99L900 77L841.7 135Z" fill="#1c2445" stroke="#1c2445"></path><path d="M204.9 0L148.6 0L173.9 71Z" fill="#372a57" stroke="#372a57"></path><path d="M156.6 600L165.9 600L185.9 505Z" fill="#1c2445" stroke="#1c2445"></path><path d="M88.3 393L86.3 491L107.6 485Z" fill="#9a2b68" stroke="#9a2b68"></path><path d="M107.6 485L110.6 536L164.9 482Z" fill="#562d63" stroke="#562d63"></path><path d="M0 437L86.3 491L88.3 393Z" fill="#d33352" stroke="#d33352"></path><path d="M86.3 491L110.6 536L107.6 485Z" fill="#00101c" stroke="#00101c"></path><path d="M754.4 600L838.7 600L841.7 533Z" fill="#782d69" stroke="#782d69"></path><path d="M110.6 536L156.6 600L185.9 505Z" fill="#f15f22" stroke="#f15f22"></path><path d="M0 274L35.3 321L73.3 217Z" fill="#e6463e" stroke="#e6463e"></path><path d="M148.6 0L89.6 54L173.9 71Z" fill="#b92b60" stroke="#b92b60"></path><path d="M91.6 109L47.3 145L103.6 186Z" fill="#0a1b31" stroke="#0a1b31"></path><path d="M61.3 212L0 274L73.3 217Z" fill="#1c2445" stroke="#1c2445"></path><path d="M47.3 65L47.3 145L91.6 109Z" fill="#d33352" stroke="#d33352"></path><path d="M838.7 600L900 545L841.7 533Z" fill="#00101c" stroke="#00101c"></path><path d="M0 324L28.3 386L35.3 321Z" fill="#d33352" stroke="#d33352"></path><path d="M35.3 321L28.3 386L97.6 333Z" fill="#f15f22" stroke="#f15f22"></path><path d="M86.3 491L59.3 552L110.6 536Z" fill="#e6463e" stroke="#e6463e"></path><path d="M900 77L900 0L820.7 50Z" fill="#562d63" stroke="#562d63"></path><path d="M0 200L0 274L61.3 212Z" fill="#372a57" stroke="#372a57"></path><path d="M0 274L0 324L35.3 321Z" fill="#e6463e" stroke="#e6463e"></path><path d="M46.3 0L47.3 65L89.6 54Z" fill="#562d63" stroke="#562d63"></path><path d="M89.6 54L47.3 65L91.6 109Z" fill="#562d63" stroke="#562d63"></path><path d="M47.3 145L0 200L61.3 212Z" fill="#9a2b68" stroke="#9a2b68"></path><path d="M0 93L0 200L47.3 145Z" fill="#372a57" stroke="#372a57"></path><path d="M838.7 600L900 600L900 545Z" fill="#e6463e" stroke="#e6463e"></path><path d="M0 324L0 396L28.3 386Z" fill="#00101c" stroke="#00101c"></path><path d="M28.3 386L0 437L88.3 393Z" fill="#b92b60" stroke="#b92b60"></path><path d="M110.6 536L63.3 600L156.6 600Z" fill="#782d69" stroke="#782d69"></path><path d="M0 489L59.3 552L86.3 491Z" fill="#00101c" stroke="#00101c"></path><path d="M0 396L0 437L28.3 386Z" fill="#00101c" stroke="#00101c"></path><path d="M47.3 65L0 93L47.3 145Z" fill="#562d63" stroke="#562d63"></path><path d="M0 0L0 93L47.3 65Z" fill="#1c2445" stroke="#1c2445"></path><path d="M148.6 0L46.3 0L89.6 54Z" fill="#782d69" stroke="#782d69"></path><path d="M0 600L63.3 600L59.3 552Z" fill="#e6463e" stroke="#e6463e"></path><path d="M59.3 552L63.3 600L110.6 536Z" fill="#0a1b31" stroke="#0a1b31"></path><path d="M0 437L0 489L86.3 491Z" fill="#f15f22" stroke="#f15f22"></path><path d="M0 489L0 532L59.3 552Z" fill="#f15f22" stroke="#f15f22"></path><path d="M46.3 0L0 0L47.3 65Z" fill="#f15f22" stroke="#f15f22"></path><path d="M0 532L0 600L59.3 552Z" fill="#00101c" stroke="#00101c"></path></g></svg>